<svg width="73" height="66" viewBox="0 0 73 66" fill="none" xmlns="http://www.w3.org/2000/svg">
<path d="M6.73372 2.6001H66.7337C68.5747 2.6001 70.0671 4.09248 70.0671 5.93343V15.9334C70.0671 17.7744 68.5747 19.2668 66.7337 19.2668H6.73372C4.89277 19.2668 3.40039 17.7744 3.40039 15.9334V5.93343C3.40039 4.09248 4.89277 2.6001 6.73372 2.6001Z" fill="white" fill-opacity="0.2" stroke="white" stroke-width="5" stroke-linecap="round" stroke-linejoin="round"/>
<path d="M10.0664 19.2668V55.9335C10.0664 57.7016 10.7688 59.3973 12.019 60.6476C13.2693 61.8978 14.965 62.6002 16.7331 62.6002H56.7331C58.5012 62.6002 60.1969 61.8978 61.4471 60.6476C62.6974 59.3973 63.3997 57.7016 63.3997 55.9335V19.2668H10.0664Z" fill="white" fill-opacity="0.2"/>
<path d="M30.0664 32.6002H43.3997M10.0664 19.2668V55.9335C10.0664 57.7016 10.7688 59.3973 12.019 60.6476C13.2693 61.8978 14.965 62.6002 16.7331 62.6002H56.7331C58.5012 62.6002 60.1969 61.8978 61.4471 60.6476C62.6974 59.3973 63.3997 57.7016 63.3997 55.9335V19.2668H10.0664Z" stroke="white" stroke-width="5" stroke-linecap="round" stroke-linejoin="round"/>
</svg>
