<svg width="30" height="31" viewBox="0 0 30 31" fill="none" xmlns="http://www.w3.org/2000/svg">
<path d="M18.9022 25.0038L10.2566 16.2195C10.067 16.0278 9.96063 15.7691 9.96063 15.4995C9.96063 15.2299 10.067 14.9711 10.2566 14.7795L18.9003 5.9951C19.0899 5.80224 19.1961 5.54267 19.1961 5.27228C19.1961 5.0019 19.0899 4.74232 18.9003 4.54947C18.8078 4.45451 18.6971 4.37903 18.5749 4.3275C18.4527 4.27597 18.3214 4.24942 18.1888 4.24942C18.0562 4.24942 17.9249 4.27597 17.8027 4.3275C17.6805 4.37903 17.5698 4.45451 17.4772 4.54947L8.83347 13.332C8.26549 13.9105 7.94727 14.6888 7.94727 15.4995C7.94727 16.3102 8.26549 17.0885 8.83348 17.667L17.4772 26.4495C17.5698 26.5447 17.6806 26.6204 17.803 26.6721C17.9254 26.7238 18.0569 26.7505 18.1897 26.7505C18.3226 26.7505 18.4541 26.7238 18.5765 26.6721C18.6988 26.6204 18.8096 26.5447 18.9022 26.4495C19.0917 26.2566 19.1979 25.997 19.1979 25.7267C19.1979 25.4563 19.0917 25.1967 18.9022 25.0038Z" fill="#BBBBBB"/>
</svg>
