<svg width="71" height="71" viewBox="0 0 71 71" fill="none" xmlns="http://www.w3.org/2000/svg">
<path d="M60.6992 8.19995H10.6992C6.55708 8.19995 3.19922 11.5578 3.19922 15.7V60.7C3.19922 64.8421 6.55708 68.2 10.6992 68.2H60.6992C64.8414 68.2 68.1992 64.8421 68.1992 60.7V15.7C68.1992 11.5578 64.8414 8.19995 60.6992 8.19995Z" fill="white" fill-opacity="0.2" stroke="white" stroke-width="5" stroke-linejoin="round"/>
<path d="M41.9492 35.7C44.0203 35.7 45.6992 34.021 45.6992 31.95C45.6992 29.8789 44.0203 28.2 41.9492 28.2C39.8782 28.2 38.1992 29.8789 38.1992 31.95C38.1992 34.021 39.8782 35.7 41.9492 35.7Z" fill="white"/>
<path d="M54.4492 35.7C56.5203 35.7 58.1992 34.021 58.1992 31.95C58.1992 29.8789 56.5203 28.2 54.4492 28.2C52.3782 28.2 50.6992 29.8789 50.6992 31.95C50.6992 34.021 52.3782 35.7 54.4492 35.7Z" fill="white"/>
<path d="M41.9492 48.2C44.0203 48.2 45.6992 46.521 45.6992 44.45C45.6992 42.3789 44.0203 40.7 41.9492 40.7C39.8782 40.7 38.1992 42.3789 38.1992 44.45C38.1992 46.521 39.8782 48.2 41.9492 48.2Z" fill="white"/>
<path d="M54.4492 48.2C56.5203 48.2 58.1992 46.521 58.1992 44.45C58.1992 42.3789 56.5203 40.7 54.4492 40.7C52.3782 40.7 50.6992 42.3789 50.6992 44.45C50.6992 46.521 52.3782 48.2 54.4492 48.2Z" fill="white"/>
<path d="M16.9492 48.2C19.0203 48.2 20.6992 46.521 20.6992 44.45C20.6992 42.3789 19.0203 40.7 16.9492 40.7C14.8782 40.7 13.1992 42.3789 13.1992 44.45C13.1992 46.521 14.8782 48.2 16.9492 48.2Z" fill="white"/>
<path d="M29.4492 48.2C31.5203 48.2 33.1992 46.521 33.1992 44.45C33.1992 42.3789 31.5203 40.7 29.4492 40.7C27.3782 40.7 25.6992 42.3789 25.6992 44.45C25.6992 46.521 27.3782 48.2 29.4492 48.2Z" fill="white"/>
<path d="M16.9492 60.7C19.0203 60.7 20.6992 59.021 20.6992 56.95C20.6992 54.8789 19.0203 53.2 16.9492 53.2C14.8782 53.2 13.1992 54.8789 13.1992 56.95C13.1992 59.021 14.8782 60.7 16.9492 60.7Z" fill="white"/>
<path d="M29.4492 60.7C31.5203 60.7 33.1992 59.021 33.1992 56.95C33.1992 54.8789 31.5203 53.2 29.4492 53.2C27.3782 53.2 25.6992 54.8789 25.6992 56.95C25.6992 59.021 27.3782 60.7 29.4492 60.7Z" fill="white"/>
<path d="M41.9492 60.7C44.0203 60.7 45.6992 59.021 45.6992 56.95C45.6992 54.8789 44.0203 53.2 41.9492 53.2C39.8782 53.2 38.1992 54.8789 38.1992 56.95C38.1992 59.021 39.8782 60.7 41.9492 60.7Z" fill="white"/>
<path d="M15.6992 3.19995V8.19995M55.6992 3.19995V8.19995" stroke="white" stroke-width="6.25" stroke-linecap="round" stroke-linejoin="round"/>
<path d="M68.1992 20.7H3.19922" stroke="white" stroke-width="5" stroke-linejoin="round"/>
</svg>
