<svg width="90" height="90" viewBox="0 0 90 90" fill="none" xmlns="http://www.w3.org/2000/svg">
<path fill-rule="evenodd" clip-rule="evenodd" d="M75.7761 25.4739C76.4791 26.1772 76.874 27.1308 76.874 28.1252C76.874 29.1195 76.4791 30.0732 75.7761 30.7764L40.1511 66.4014C39.4478 67.1044 38.4942 67.4994 37.4998 67.4994C36.5055 67.4994 35.5518 67.1044 34.8486 66.4014L17.9736 49.5264C17.2905 48.8192 16.9125 47.8719 16.921 46.8887C16.9296 45.9054 17.324 44.9649 18.0192 44.2696C18.7145 43.5743 19.6551 43.1799 20.6383 43.1714C21.6216 43.1629 22.5688 43.5408 23.2761 44.2239L37.4998 58.4477L70.4736 25.4739C71.1768 24.7709 72.1305 24.376 73.1248 24.376C74.1192 24.376 75.0728 24.7709 75.7761 25.4739Z" fill="#60D7BB"/>
</svg>
