<svg width="42" height="42" viewBox="0 0 42 42" fill="none" xmlns="http://www.w3.org/2000/svg">
<circle cx="21" cy="21" r="20" stroke="#60D7BB" stroke-width="2"/>
<path d="M13 29C12.45 29 11.9793 28.8043 11.588 28.413C11.1967 28.0217 11.0007 27.5507 11 27V15C11 14.45 11.196 13.9793 11.588 13.588C11.98 13.1967 12.4507 13.0007 13 13H29C29.55 13 30.021 13.196 30.413 13.588C30.805 13.98 31.0007 14.4507 31 15V27C31 27.55 30.8043 28.021 30.413 28.413C30.0217 28.805 29.5507 29.0007 29 29H13ZM21 22L13 17V27H29V17L21 22ZM21 20L29 15H13L21 20ZM13 17V15V27V17Z" fill="#60D7BB"/>
</svg>
