<svg width="37" height="34" viewBox="0 0 37 34" fill="none" xmlns="http://www.w3.org/2000/svg">
<path d="M35.9996 11.2585C36.0056 13.9513 34.9682 16.5417 33.1051 18.486C28.8333 22.9152 24.6893 27.5335 20.2601 31.8C19.2433 32.7625 17.6316 32.7275 16.6603 31.7213L3.89406 18.4878C0.0353127 14.4873 0.0353127 8.02975 3.89406 4.031C4.80606 3.07375 5.90295 2.31166 7.11824 1.79095C8.33354 1.27024 9.64191 1.00175 10.9641 1.00175C12.2862 1.00175 13.5946 1.27024 14.8099 1.79095C16.0252 2.31166 17.1221 3.07375 18.0341 4.031L18.4996 4.5105L18.9633 4.031C19.8764 3.07505 20.9735 2.31372 22.1885 1.79283C23.4035 1.27193 24.7113 1.00225 26.0333 1C28.6933 1 31.2361 2.092 33.1033 4.031C34.967 5.97498 36.0051 8.56545 35.9996 11.2585Z" fill="white" stroke="#8E8E93" stroke-width="2" stroke-linejoin="round"/>
</svg>
