<svg width="72" height="66" viewBox="0 0 72 66" fill="none" xmlns="http://www.w3.org/2000/svg">
<path d="M69.3338 22.54C69.3453 27.6692 67.3692 32.6033 63.8205 36.3067C55.6838 44.7433 47.7905 53.54 39.3538 61.6667C37.4171 63.5 34.3471 63.4333 32.4971 61.5167L8.18047 36.31C0.830469 28.69 0.830469 16.39 8.18047 8.77333C9.91761 6.94999 12.0069 5.49841 14.3218 4.50658C16.6366 3.51475 19.1288 3.00333 21.6471 3.00333C24.1655 3.00333 26.6577 3.51475 28.9725 4.50658C31.2873 5.49841 33.3767 6.94999 35.1138 8.77333L36.0005 9.68667L36.8838 8.77333C38.623 6.95247 40.7127 5.50232 43.027 4.51014C45.3413 3.51797 47.8324 3.00428 50.3505 3C55.4171 3 60.2605 5.08 63.8171 8.77333C67.3671 12.4761 69.3444 17.4104 69.3338 22.54Z" fill="white" fill-opacity="0.2" stroke="white" stroke-width="5" stroke-linejoin="round"/>
</svg>
