<svg width="42" height="42" viewBox="0 0 42 42" fill="none" xmlns="http://www.w3.org/2000/svg">
<circle cx="21" cy="21" r="20" stroke="#60D7BB" stroke-width="2"/>
<path fill-rule="evenodd" clip-rule="evenodd" d="M17.3077 23.6634C21.1527 27.5084 24.7157 27.9294 25.7617 27.9684C27.0257 28.0144 28.3157 26.9824 28.8737 25.9254C27.9837 24.8814 26.8247 24.0714 25.5557 23.1934C24.8067 23.9414 23.8837 25.3314 22.6547 24.8334C21.9557 24.5524 20.2297 23.7574 18.7217 22.2484C17.2137 20.7394 16.4187 19.0144 16.1357 18.3164C15.6377 17.0854 17.0317 16.1604 17.7807 15.4114C16.9027 14.1214 16.1067 12.9324 15.0647 12.0874C13.9927 12.6474 12.9547 13.9274 13.0017 15.2084C13.0407 16.2544 13.4617 19.8174 17.3077 23.6634ZM25.6877 29.9674C24.2477 29.9144 20.1667 29.3504 15.8927 25.0774C11.6197 20.8034 11.0567 16.7234 11.0027 15.2824C10.9227 13.0864 12.6047 10.9534 14.5477 10.1204C14.7817 10.0194 15.0379 9.98094 15.2913 10.0088C15.5446 10.0367 15.7863 10.13 15.9927 10.2794C17.6007 11.4524 18.7097 13.2294 19.6627 14.6214C19.861 14.9109 19.9518 15.2605 19.9195 15.6099C19.8872 15.9592 19.7337 16.2863 19.4857 16.5344L18.1297 17.8914C18.4447 18.5864 19.0857 19.7844 20.1357 20.8344C21.1857 21.8844 22.3837 22.5254 23.0797 22.8404L24.4347 21.4844C24.6836 21.2354 25.012 21.0818 25.3627 21.0505C25.7133 21.0193 26.0638 21.1123 26.3527 21.3134C27.7727 22.2974 29.4407 23.3904 30.6567 24.9474C30.8184 25.1553 30.9212 25.4029 30.9544 25.6641C30.9877 25.9253 30.9501 26.1907 30.8457 26.4324C30.0087 28.3854 27.8907 30.0484 25.6877 29.9674Z" fill="#60D7BB"/>
</svg>
