<svg width="44" height="44" viewBox="0 0 44 44" fill="none" xmlns="http://www.w3.org/2000/svg">
<rect x="1" y="1" width="42" height="42" rx="20.5" stroke="#60D7BB" stroke-width="2"/>
<path d="M22 19.5C22.5745 19.5 23.1434 19.3868 23.6742 19.167C24.205 18.9471 24.6873 18.6248 25.0936 18.2186C25.4998 17.8123 25.8221 17.33 26.042 16.7992C26.2618 16.2684 26.375 15.6995 26.375 15.125C26.375 14.5505 26.2618 13.9816 26.042 13.4508C25.8221 12.92 25.4998 12.4377 25.0936 12.0314C24.6873 11.6252 24.205 11.3029 23.6742 11.083C23.1434 10.8632 22.5745 10.75 22 10.75C20.8397 10.75 19.7269 11.2109 18.9064 12.0314C18.0859 12.8519 17.625 13.9647 17.625 15.125C17.625 16.2853 18.0859 17.3981 18.9064 18.2186C19.7269 19.0391 20.8397 19.5 22 19.5ZM10.75 32.5V33.25H33.25V32.5C33.25 29.7 33.25 28.3 32.705 27.23C32.2256 26.2892 31.4608 25.5244 30.52 25.045C29.45 24.5 28.05 24.5 25.25 24.5H18.75C15.95 24.5 14.55 24.5 13.48 25.045C12.5392 25.5244 11.7744 26.2892 11.295 27.23C10.75 28.3 10.75 29.7 10.75 32.5Z" stroke="#60D7BB" stroke-width="2" stroke-linecap="round" stroke-linejoin="round"/>
</svg>
