<svg width="42" height="42" viewBox="0 0 42 42" fill="none" xmlns="http://www.w3.org/2000/svg">
<circle cx="21" cy="21" r="20" stroke="#60D7BB" stroke-width="2"/>
<path fill-rule="evenodd" clip-rule="evenodd" d="M30.84 14.3369C30.8891 14.0391 30.8574 13.7337 30.7483 13.4523C30.6392 13.1709 30.4566 12.924 30.2196 12.7372C29.9826 12.5504 29.6998 12.4305 29.4007 12.3902C29.1016 12.3498 28.7972 12.3904 28.5191 12.5077L9.28164 20.6077C7.94064 21.1724 7.87202 23.1119 9.28164 23.6969C10.6776 24.2786 12.0938 24.8106 13.5274 25.2922C14.8414 25.7264 16.2746 26.128 17.4233 26.2417C17.7371 26.6174 18.132 26.9797 18.5348 27.3104C19.1501 27.8167 19.8904 28.3375 20.6554 28.837C22.1876 29.8383 23.8875 30.7957 25.0328 31.4189C26.4019 32.1614 28.041 31.3064 28.2863 29.8135L30.84 14.3369ZM11.4383 22.141L28.4528 14.977L26.07 29.422C24.9461 28.8112 23.3273 27.8965 21.885 26.9538C21.2203 26.527 20.5786 26.0655 19.9624 25.5712C19.7977 25.4366 19.6379 25.2963 19.4831 25.1504L23.9393 20.6954C24.1504 20.4845 24.269 20.1983 24.2691 19.8999C24.2692 19.6014 24.1508 19.3152 23.9398 19.1041C23.7289 18.893 23.4427 18.7743 23.1443 18.7742C22.8459 18.7741 22.5596 18.8926 22.3485 19.1035L17.4694 23.9827C16.6436 23.8769 15.4939 23.5709 14.2316 23.1547C13.2919 22.8416 12.3609 22.5032 11.4394 22.1399L11.4383 22.141Z" fill="#60D7BB"/>
</svg>
